<svg width="200" height="48" viewBox="0 0 200 48" fill="none" xmlns="http://www.w3.org/2000/svg">
<path d="M22.459 34.8867V39H8.83594V34.8867H22.459ZM10.5586 13.4062V39H5.28516V13.4062H10.5586ZM20.6836 23.8301V27.8379H8.83594V23.8301H20.6836ZM22.4414 13.4062V17.5371H8.83594V13.4062H22.4414ZM32.1558 24.041V39H27.0933V19.9805H31.8394L32.1558 24.041ZM31.4175 28.8223H30.0464C30.0464 27.416 30.228 26.1504 30.5913 25.0254C30.9546 23.8887 31.4644 22.9219 32.1206 22.125C32.7769 21.3164 33.5562 20.7012 34.4585 20.2793C35.3726 19.8457 36.3921 19.6289 37.5171 19.6289C38.4077 19.6289 39.2222 19.7578 39.9605 20.0156C40.6987 20.2734 41.3316 20.6836 41.8589 21.2461C42.398 21.8086 42.8081 22.5527 43.0894 23.4785C43.3823 24.4043 43.5288 25.5352 43.5288 26.8711V39H38.4312V26.8535C38.4312 26.0098 38.314 25.3535 38.0796 24.8848C37.8452 24.416 37.4995 24.0879 37.0425 23.9004C36.5972 23.7012 36.0464 23.6016 35.3902 23.6016C34.7105 23.6016 34.1187 23.7363 33.6148 24.0059C33.1226 24.2754 32.7124 24.6504 32.3843 25.1309C32.0679 25.5996 31.8277 26.1504 31.6636 26.7832C31.4995 27.416 31.4175 28.0957 31.4175 28.8223ZM57.2159 35.3965C57.837 35.3965 58.3877 35.2793 58.8682 35.0449C59.3487 34.7988 59.7237 34.459 59.9932 34.0254C60.2745 33.5801 60.4209 33.0586 60.4327 32.4609H65.1963C65.1846 33.7969 64.8272 34.9863 64.1241 36.0293C63.4209 37.0605 62.4776 37.875 61.294 38.4727C60.1104 39.0586 58.7862 39.3516 57.3213 39.3516C55.8448 39.3516 54.5557 39.1055 53.4541 38.6133C52.3643 38.1211 51.4561 37.4414 50.7295 36.5742C50.003 35.6953 49.458 34.6758 49.0948 33.5156C48.7315 32.3438 48.5498 31.0898 48.5498 29.7539V29.2441C48.5498 27.8965 48.7315 26.6426 49.0948 25.4824C49.458 24.3105 50.003 23.291 50.7295 22.4238C51.4561 21.5449 52.3643 20.8594 53.4541 20.3672C54.544 19.875 55.8213 19.6289 57.2862 19.6289C58.8448 19.6289 60.21 19.9277 61.3819 20.5254C62.5655 21.123 63.4912 21.9785 64.1592 23.0918C64.8389 24.1934 65.1846 25.5 65.1963 27.0117H60.4327C60.4209 26.3789 60.2862 25.8047 60.0284 25.2891C59.7823 24.7734 59.419 24.3633 58.9385 24.0586C58.4698 23.7422 57.8897 23.584 57.1983 23.584C56.46 23.584 55.8565 23.7422 55.3877 24.0586C54.919 24.3633 54.5557 24.7852 54.2979 25.3242C54.0401 25.8516 53.8584 26.4551 53.753 27.1348C53.6592 27.8027 53.6123 28.5059 53.6123 29.2441V29.7539C53.6123 30.4922 53.6592 31.2012 53.753 31.8809C53.8467 32.5605 54.0225 33.1641 54.2803 33.6914C54.5498 34.2188 54.919 34.6348 55.3877 34.9395C55.8565 35.2441 56.4659 35.3965 57.2159 35.3965ZM81.3619 34.4473V19.9805H86.4244V39H81.6607L81.3619 34.4473ZM81.9244 30.5449L83.4185 30.5098C83.4185 31.7754 83.272 32.9531 82.9791 34.043C82.6861 35.1211 82.2466 36.0586 81.6607 36.8555C81.0748 37.6406 80.3365 38.2559 79.4459 38.7012C78.5552 39.1348 77.5064 39.3516 76.2994 39.3516C75.3736 39.3516 74.5181 39.2227 73.733 38.9648C72.9595 38.6953 72.2916 38.2793 71.7291 37.7168C71.1783 37.1426 70.7447 36.4102 70.4283 35.5195C70.1236 34.6172 69.9713 33.5332 69.9713 32.2676V19.9805H75.0338V32.3027C75.0338 32.8652 75.0982 33.3398 75.2271 33.7266C75.3677 34.1133 75.5611 34.4297 75.8072 34.6758C76.0533 34.9219 76.3404 35.0977 76.6685 35.2031C77.0084 35.3086 77.3834 35.3613 77.7935 35.3613C78.8365 35.3613 79.6568 35.1504 80.2545 34.7285C80.8638 34.3066 81.2916 33.7324 81.5377 33.0059C81.7955 32.2676 81.9244 31.4473 81.9244 30.5449ZM97.3341 24.1289V39H92.2716V19.9805H97.0352L97.3341 24.1289ZM103.065 19.8574L102.977 24.5508C102.731 24.5156 102.432 24.4863 102.08 24.4629C101.74 24.4277 101.43 24.4102 101.149 24.4102C100.434 24.4102 99.8126 24.5039 99.2852 24.6914C98.7696 24.8672 98.336 25.1309 97.9845 25.4824C97.6446 25.834 97.3868 26.2617 97.211 26.7656C97.047 27.2695 96.9532 27.8438 96.9298 28.4883L95.9102 28.1719C95.9102 26.9414 96.0333 25.8105 96.2794 24.7793C96.5255 23.7363 96.8829 22.8281 97.3516 22.0547C97.8321 21.2812 98.418 20.6836 99.1095 20.2617C99.8009 19.8398 100.592 19.6289 101.482 19.6289C101.764 19.6289 102.051 19.6523 102.344 19.6992C102.637 19.7344 102.877 19.7871 103.065 19.8574ZM117.63 19.9805V23.5664H106.556V19.9805H117.63ZM109.298 15.2871H114.361V33.2695C114.361 33.8203 114.431 34.2422 114.572 34.5352C114.724 34.8281 114.947 35.0332 115.24 35.1504C115.533 35.2559 115.902 35.3086 116.347 35.3086C116.664 35.3086 116.945 35.2969 117.191 35.2734C117.449 35.2383 117.666 35.2031 117.841 35.168L117.859 38.8945C117.425 39.0352 116.957 39.1465 116.453 39.2285C115.949 39.3105 115.392 39.3516 114.783 39.3516C113.67 39.3516 112.697 39.1699 111.865 38.8066C111.045 38.4316 110.412 37.834 109.966 37.0137C109.521 36.1934 109.298 35.1152 109.298 33.7793V15.2871ZM132.759 34.7109V26.2383C132.759 25.6289 132.659 25.1074 132.46 24.6738C132.261 24.2285 131.95 23.8828 131.528 23.6367C131.118 23.3906 130.585 23.2676 129.929 23.2676C129.366 23.2676 128.88 23.3672 128.47 23.5664C128.06 23.7539 127.743 24.0293 127.521 24.3926C127.298 24.7441 127.187 25.1602 127.187 25.6406H122.124C122.124 24.832 122.312 24.0645 122.687 23.3379C123.062 22.6113 123.607 21.9727 124.321 21.4219C125.036 20.8594 125.886 20.4199 126.87 20.1035C127.866 19.7871 128.98 19.6289 130.21 19.6289C131.687 19.6289 132.999 19.875 134.148 20.3672C135.296 20.8594 136.198 21.5977 136.855 22.582C137.523 23.5664 137.857 24.7969 137.857 26.2734V34.4121C137.857 35.4551 137.921 36.3105 138.05 36.9785C138.179 37.6348 138.366 38.209 138.612 38.7012V39H133.497C133.251 38.4844 133.064 37.8398 132.935 37.0664C132.817 36.2812 132.759 35.4961 132.759 34.7109ZM133.427 27.416L133.462 30.2812H130.632C129.964 30.2812 129.384 30.3574 128.892 30.5098C128.4 30.6621 127.995 30.8789 127.679 31.1602C127.362 31.4297 127.128 31.7461 126.976 32.1094C126.835 32.4727 126.765 32.8711 126.765 33.3047C126.765 33.7383 126.864 34.1309 127.064 34.4824C127.263 34.8223 127.55 35.0918 127.925 35.291C128.3 35.4785 128.739 35.5723 129.243 35.5723C130.005 35.5723 130.667 35.4199 131.23 35.1152C131.792 34.8105 132.226 34.4355 132.53 33.9902C132.847 33.5449 133.011 33.123 133.023 32.7246L134.359 34.8691C134.171 35.3496 133.913 35.8477 133.585 36.3633C133.269 36.8789 132.864 37.3652 132.372 37.8223C131.88 38.2676 131.288 38.6367 130.597 38.9297C129.905 39.2109 129.085 39.3516 128.136 39.3516C126.929 39.3516 125.833 39.1113 124.849 38.6309C123.876 38.1387 123.103 37.4648 122.528 36.6094C121.966 35.7422 121.685 34.7578 121.685 33.6562C121.685 32.6602 121.872 31.7754 122.247 31.002C122.622 30.2285 123.173 29.5781 123.9 29.0508C124.638 28.5117 125.558 28.1074 126.659 27.8379C127.761 27.5566 129.038 27.416 130.491 27.416H133.427ZM154.971 34.8516V12H160.069V39H155.481L154.971 34.8516ZM142.948 29.7188V29.3496C142.948 27.8965 143.112 26.5781 143.44 25.3945C143.768 24.1992 144.249 23.1738 144.881 22.3184C145.514 21.4629 146.294 20.8008 147.219 20.332C148.145 19.8633 149.2 19.6289 150.383 19.6289C151.497 19.6289 152.469 19.8633 153.301 20.332C154.145 20.8008 154.86 21.4688 155.446 22.3359C156.044 23.1914 156.524 24.2051 156.887 25.377C157.251 26.5371 157.514 27.8086 157.678 29.1914V30C157.514 31.3242 157.251 32.5547 156.887 33.6914C156.524 34.8281 156.044 35.8242 155.446 36.6797C154.86 37.5234 154.145 38.1797 153.301 38.6484C152.458 39.1172 151.473 39.3516 150.348 39.3516C149.165 39.3516 148.11 39.1113 147.184 38.6309C146.27 38.1504 145.497 37.4766 144.864 36.6094C144.243 35.7422 143.768 34.7227 143.44 33.5508C143.112 32.3789 142.948 31.1016 142.948 29.7188ZM148.01 29.3496V29.7188C148.01 30.5039 148.069 31.2363 148.186 31.916C148.315 32.5957 148.52 33.1992 148.801 33.7266C149.094 34.2422 149.469 34.6465 149.926 34.9395C150.395 35.2207 150.964 35.3613 151.631 35.3613C152.499 35.3613 153.214 35.168 153.776 34.7812C154.339 34.3828 154.766 33.8379 155.059 33.1465C155.364 32.4551 155.54 31.6582 155.587 30.7559V28.4531C155.551 27.7148 155.446 27.0527 155.27 26.4668C155.106 25.8691 154.86 25.3594 154.532 24.9375C154.215 24.5156 153.817 24.1875 153.337 23.9531C152.868 23.7188 152.311 23.6016 151.667 23.6016C151.01 23.6016 150.448 23.7539 149.979 24.0586C149.51 24.3516 149.13 24.7559 148.837 25.2715C148.555 25.7871 148.344 26.3965 148.204 27.0996C148.075 27.791 148.01 28.541 148.01 29.3496ZM165.195 29.6836V29.3145C165.195 27.9199 165.395 26.6367 165.793 25.4648C166.192 24.2812 166.772 23.2559 167.533 22.3887C168.295 21.5215 169.233 20.8477 170.346 20.3672C171.459 19.875 172.736 19.6289 174.178 19.6289C175.619 19.6289 176.902 19.875 178.027 20.3672C179.152 20.8477 180.096 21.5215 180.858 22.3887C181.631 23.2559 182.217 24.2812 182.615 25.4648C183.014 26.6367 183.213 27.9199 183.213 29.3145V29.6836C183.213 31.0664 183.014 32.3496 182.615 33.5332C182.217 34.7051 181.631 35.7305 180.858 36.6094C180.096 37.4766 179.158 38.1504 178.045 38.6309C176.932 39.1113 175.654 39.3516 174.213 39.3516C172.772 39.3516 171.488 39.1113 170.363 38.6309C169.25 38.1504 168.307 37.4766 167.533 36.6094C166.772 35.7305 166.192 34.7051 165.793 33.5332C165.395 32.3496 165.195 31.0664 165.195 29.6836ZM170.258 29.3145V29.6836C170.258 30.4805 170.328 31.2246 170.469 31.916C170.61 32.6074 170.832 33.2168 171.137 33.7441C171.453 34.2598 171.863 34.6641 172.367 34.957C172.871 35.25 173.486 35.3965 174.213 35.3965C174.916 35.3965 175.52 35.25 176.024 34.957C176.527 34.6641 176.932 34.2598 177.236 33.7441C177.541 33.2168 177.764 32.6074 177.904 31.916C178.057 31.2246 178.133 30.4805 178.133 29.6836V29.3145C178.133 28.541 178.057 27.8145 177.904 27.1348C177.764 26.4434 177.535 25.834 177.219 25.3066C176.914 24.7676 176.51 24.3457 176.006 24.041C175.502 23.7363 174.893 23.584 174.178 23.584C173.463 23.584 172.854 23.7363 172.35 24.041C171.858 24.3457 171.453 24.7676 171.137 25.3066C170.832 25.834 170.61 26.4434 170.469 27.1348C170.328 27.8145 170.258 28.541 170.258 29.3145ZM193.367 24.1289V39H188.304V19.9805H193.068L193.367 24.1289ZM199.097 19.8574L199.009 24.5508C198.763 24.5156 198.465 24.4863 198.113 24.4629C197.773 24.4277 197.463 24.4102 197.181 24.4102C196.466 24.4102 195.845 24.5039 195.318 24.6914C194.802 24.8672 194.369 25.1309 194.017 25.4824C193.677 25.834 193.42 26.2617 193.244 26.7656C193.08 27.2695 192.986 27.8438 192.963 28.4883L191.943 28.1719C191.943 26.9414 192.066 25.8105 192.312 24.7793C192.558 23.7363 192.916 22.8281 193.384 22.0547C193.865 21.2812 194.451 20.6836 195.142 20.2617C195.834 19.8398 196.625 19.6289 197.515 19.6289C197.797 19.6289 198.084 19.6523 198.377 19.6992C198.67 19.7344 198.91 19.7871 199.097 19.8574Z" fill="#1D2730"/>
<rect x="6.24512" width="5.15713" height="43.8356" rx="2.57857" transform="rotate(8.19041 6.24512 0)" fill="#08C9C9"/>
</svg>
